<svg xmlns="http://www.w3.org/2000/svg" width="25" height="25" viewBox="0 0 25 25" fill="none">
  <path d="M6.77081 23.9583C6.35415 23.9583 5.98956 23.8021 5.67706 23.4896C5.36456 23.1771 5.20831 22.8125 5.20831 22.3958V2.60416C5.20831 2.1875 5.36456 1.82291 5.67706 1.51041C5.98956 1.19791 6.35415 1.04166 6.77081 1.04166H18.2291C18.6458 1.04166 19.0104 1.19791 19.3229 1.51041C19.6354 1.82291 19.7916 2.1875 19.7916 2.60416V22.3958C19.7916 22.8125 19.6354 23.1771 19.3229 23.4896C19.0104 23.8021 18.6458 23.9583 18.2291 23.9583H6.77081ZM6.77081 20.0521V22.3958H18.2291V20.0521H6.77081ZM12.5 22.0052C12.7257 22.0052 12.9123 21.9314 13.0599 21.7839C13.2074 21.6363 13.2812 21.4496 13.2812 21.224C13.2812 20.9983 13.2074 20.8116 13.0599 20.6641C12.9123 20.5165 12.7257 20.4427 12.5 20.4427C12.2743 20.4427 12.0877 20.5165 11.9401 20.6641C11.7925 20.8116 11.7187 20.9983 11.7187 21.224C11.7187 21.4496 11.7925 21.6363 11.9401 21.7839C12.0877 21.9314 12.2743 22.0052 12.5 22.0052ZM6.77081 18.4896H18.2291V4.94791H6.77081V18.4896ZM6.77081 3.38541H18.2291V2.60416H6.77081V3.38541Z" fill="white"/>
</svg>